<?xml version="1.0" standalone="no"?>
<!DOCTYPE svg PUBLIC "-//W3C//DTD SVG 20010904//EN"
 "http://www.w3.org/TR/2001/REC-SVG-20010904/DTD/svg10.dtd">
<svg version="1.0" xmlns="http://www.w3.org/2000/svg"
 width="512.000000pt" height="512.000000pt" viewBox="0 0 512.000000 512.000000"
 preserveAspectRatio="xMidYMid meet">
<metadata>
Created by potrace 1.14, written by Peter Selinger 2001-2017
</metadata>
<g transform="translate(0.000000,512.000000) scale(0.100000,-0.100000)"
fill="#000000" stroke="none">
<path d="M1905 4594 c-156 -25 -247 -56 -391 -130 -113 -57 -142 -76 -229
-149 -251 -209 -418 -512 -451 -821 -7 -59 -8 -60 -125 -163 -134 -119 -367
-235 -534 -267 -22 -5 -42 -9 -45 -9 -83 -17 -123 -54 -126 -117 -1 -24 4 -54
11 -68 42 -81 304 -251 501 -326 160 -60 397 -100 580 -98 99 1 104 -8 47 -71
-98 -108 -195 -304 -232 -470 -39 -169 -34 -357 12 -560 11 -46 61 -165 98
-235 122 -225 333 -416 567 -512 82 -33 137 -50 257 -76 17 -3 449 -7 960 -8
760 -2 944 0 1009 11 43 8 96 17 117 20 47 7 176 46 246 74 345 137 628 442
782 841 26 70 80 244 87 284 3 17 9 47 14 66 7 30 25 140 36 220 13 100 18
217 19 425 l0 240 -31 65 c-81 168 -261 250 -434 198 -32 -9 -90 -39 -193 -97
-70 -39 -284 -122 -348 -135 -13 -2 -62 -13 -109 -24 -47 -11 -107 -23 -135
-27 -27 -3 -65 -8 -82 -11 -18 -2 -50 -6 -70 -9 -21 -3 -147 -8 -280 -10
l-242 -4 54 107 c51 102 108 266 119 342 3 19 8 53 12 75 14 91 11 230 -10
387 -17 135 -106 351 -203 495 -64 96 -199 238 -288 305 -58 43 -215 138 -229
138 -3 0 -25 9 -49 19 -203 90 -464 123 -692 85z"/>
</g>
</svg>
